# xmcd CD database file
#
# Track frame offsets:
#	150
#	35274
#	69506
#	97483
#	122032
#	154320
#	167410
#	174590
#	185953
#	205836
#
# Disc length: 3127 seconds
#
# Revision: 0
# Processed by: cddbd v1.5.2PL0 Copyright (c) Steve Scherf et al.
# Submitted via: CDex 2.15
#
DISCID=8f0c350a
DTITLE=Anna Maria Jopek and Branford Marsalis - Ulotne
DYEAR=2018
DGENRE=Jazz
TTITLE0=W Polu Lipenka
TTITLE1=W Kadzidlanskim Boru
TTITLE2=Niepojete Ulotne
TTITLE3=Patrzi Sluchaj
TTITLE4=Niezauwazone
TTITLE5=Czekanie
TTITLE6=Na Droge
TTITLE7=Opowiese
TTITLE8=Czule Miejsee
TTITLE9=Nielejalnosc
EXTD=YEAR: 2018
EXTT0=
EXTT1=
EXTT2=
EXTT3=
EXTT4=
EXTT5=
EXTT6=
EXTT7=
EXTT8=
EXTT9=
PLAYORDER=
